<?xml version="1.0" encoding="UTF-8"?>
<svg xmlns="http://www.w3.org/2000/svg" xmlns:xlink="http://www.w3.org/1999/xlink" width="16pt" height="16pt" viewBox="0 0 16 16" version="1.1">
<g id="surface1">
<path style=" stroke:none;fill-rule:nonzero;fill:rgb(0%,0%,0%);fill-opacity:1;" d="M 15.171875 9.21875 C 14.050781 6.199219 10.882812 5.378906 7.960938 6.070312 C 8.0625 5.335938 8.035156 4.585938 8.015625 3.847656 C 8 3.191406 8.042969 2.4375 7.925781 1.765625 C 7.921875 1.761719 7.921875 1.757812 7.921875 1.753906 C 7.902344 1.632812 7.875 1.515625 7.84375 1.398438 C 7.777344 1.175781 7.441406 1.167969 7.378906 1.398438 C 7.371094 1.441406 7.363281 1.488281 7.355469 1.53125 C 6.152344 1.761719 5.046875 2.65625 4.125 3.386719 C 3.601562 3.800781 3.09375 4.230469 2.589844 4.671875 C 2.539062 4.664062 2.492188 4.703125 2.5 4.753906 C 1.667969 5.488281 0.863281 6.261719 0.101562 7.070312 C -0.015625 7.199219 -0.0507812 7.445312 0.101562 7.566406 C 2.605469 9.527344 4.867188 11.921875 7.542969 13.644531 C 7.59375 13.679688 7.644531 13.671875 7.683594 13.644531 C 7.777344 13.660156 7.875 13.628906 7.945312 13.535156 C 8.238281 13.117188 8.054688 12.207031 8.039062 11.722656 C 8.011719 10.921875 8.011719 10.109375 7.933594 9.3125 C 7.90625 9.050781 7.550781 9.050781 7.527344 9.3125 C 7.507812 9.488281 7.496094 9.664062 7.484375 9.84375 C 5.792969 8.453125 3.953125 7.140625 2.105469 5.972656 C 2.363281 5.707031 2.632812 5.441406 2.910156 5.179688 C 4.394531 6.628906 6.175781 7.832031 7.871094 9.003906 C 7.917969 9.035156 7.960938 9.039062 8 9.03125 C 7.902344 9.117188 7.875 9.207031 8.027344 9.285156 C 8.296875 9.417969 8.683594 9.273438 8.96875 9.265625 C 9.835938 9.234375 10.722656 9.414062 11.558594 9.632812 C 13.8125 10.21875 14.613281 12.324219 14.53125 14.464844 C 14.519531 14.8125 14.941406 14.882812 15.128906 14.683594 C 16.921875 14.296875 15.515625 10.148438 15.171875 9.21875 Z M 7.363281 13.054688 C 5.425781 10.933594 3.125 9.046875 0.863281 7.28125 C 1.042969 7.089844 1.226562 6.890625 1.417969 6.691406 C 2.996094 8.804688 5.371094 10.128906 7.417969 11.738281 C 7.402344 12.078125 7.316406 12.621094 7.363281 13.054688 Z M 7.464844 10.269531 C 7.449219 10.601562 7.441406 10.9375 7.433594 11.269531 C 5.457031 9.710938 3.222656 8.457031 1.542969 6.558594 C 1.6875 6.402344 1.839844 6.246094 1.992188 6.089844 C 3.847656 7.410156 5.511719 9.101562 7.464844 10.269531 Z M 14.527344 9.394531 C 14.558594 9.476562 14.597656 9.574219 14.636719 9.675781 C 14.300781 9.328125 13.925781 9.003906 13.59375 8.675781 C 12.890625 7.984375 12.15625 7.328125 11.417969 6.675781 C 11.410156 6.671875 11.40625 6.667969 11.398438 6.664062 C 12.761719 7.035156 13.917969 7.882812 14.527344 9.394531 Z M 7.296875 2.246094 C 7.304688 2.609375 7.347656 2.976562 7.378906 3.328125 C 7.273438 3.257812 7.164062 3.1875 7.066406 3.121094 C 6.828125 2.953125 6.582031 2.796875 6.332031 2.648438 C 6.648438 2.488281 6.972656 2.351562 7.296875 2.246094 Z M 6.089844 2.773438 C 6.34375 2.9375 6.597656 3.109375 6.839844 3.292969 C 7.023438 3.433594 7.207031 3.617188 7.40625 3.753906 C 7.414062 3.941406 7.425781 4.125 7.433594 4.3125 C 7.164062 4.09375 6.855469 3.910156 6.570312 3.714844 C 6.238281 3.480469 5.894531 3.265625 5.523438 3.097656 C 5.710938 2.980469 5.898438 2.875 6.089844 2.773438 Z M 5.300781 3.242188 C 5.648438 3.425781 5.984375 3.617188 6.308594 3.839844 C 6.691406 4.101562 7.046875 4.445312 7.453125 4.667969 C 7.460938 4.828125 7.46875 4.992188 7.476562 5.15625 C 7.132812 4.910156 6.707031 4.726562 6.371094 4.53125 C 5.847656 4.222656 5.332031 3.902344 4.824219 3.570312 C 4.980469 3.453125 5.140625 3.347656 5.300781 3.242188 Z M 8.648438 8.730469 C 8.621094 8.734375 8.300781 8.835938 8.09375 8.964844 C 8.148438 8.886719 8.15625 8.757812 8.058594 8.683594 C 6.421875 7.425781 4.703125 6.289062 3.070312 5.03125 C 3.277344 4.832031 3.492188 4.644531 3.707031 4.457031 C 5.644531 5.863281 7.644531 7.148438 9.503906 8.664062 C 9.207031 8.664062 8.921875 8.683594 8.648438 8.730469 Z M 9.886719 8.671875 C 9.917969 8.613281 9.917969 8.539062 9.847656 8.480469 C 8.035156 6.863281 5.898438 5.648438 3.875 4.3125 C 4.128906 4.097656 4.390625 3.890625 4.65625 3.691406 C 5.101562 4.035156 5.578125 4.34375 6.050781 4.652344 C 6.507812 4.953125 6.996094 5.378906 7.503906 5.613281 C 7.515625 5.816406 7.53125 6.015625 7.546875 6.214844 C 7.441406 6.324219 7.480469 6.515625 7.613281 6.59375 C 7.675781 6.660156 7.78125 6.679688 7.84375 6.613281 C 8.128906 6.558594 8.421875 6.515625 8.710938 6.484375 C 9.480469 7.425781 10.496094 8.183594 11.453125 8.921875 C 10.960938 8.792969 10.421875 8.703125 9.886719 8.671875 Z M 11.734375 8.996094 C 11.710938 8.988281 11.683594 8.980469 11.660156 8.976562 C 11.742188 8.925781 11.789062 8.804688 11.699219 8.734375 C 10.75 7.996094 9.792969 7.316406 8.953125 6.460938 C 9.308594 6.433594 9.664062 6.433594 10.011719 6.449219 C 9.988281 6.476562 9.980469 6.519531 10.015625 6.554688 C 11.074219 7.660156 12.195312 8.628906 13.21875 9.707031 C 12.796875 9.402344 12.304688 9.164062 11.734375 8.996094 Z M 10.144531 6.457031 C 10.5625 6.484375 10.96875 6.550781 11.363281 6.65625 C 11.296875 6.65625 11.242188 6.734375 11.300781 6.792969 C 11.953125 7.402344 12.609375 8.015625 13.246094 8.640625 C 13.84375 9.234375 14.339844 9.929688 14.9375 10.515625 C 15.058594 10.890625 15.175781 11.304688 15.261719 11.722656 C 14.234375 9.503906 11.886719 8.058594 10.144531 6.457031 Z M 15.210938 13.773438 C 15.171875 12.917969 14.988281 12.117188 14.648438 11.414062 C 14.800781 11.632812 14.949219 11.851562 15.09375 12.082031 C 15.144531 12.171875 15.265625 12.167969 15.335938 12.113281 C 15.429688 12.746094 15.425781 13.351562 15.210938 13.773438 Z M 15.210938 13.773438 "/>
</g>
</svg>
