<?xml version="1.0" encoding="UTF-8"?>
<svg xmlns="http://www.w3.org/2000/svg" xmlns:xlink="http://www.w3.org/1999/xlink" width="16pt" height="15pt" viewBox="0 0 16 15" version="1.1">
<g id="surface1">
<path style=" stroke:none;fill-rule:nonzero;fill:rgb(0.392157%,0%,0.784314%);fill-opacity:1;" d="M 8 0 C 3.582031 0 0 3.359375 0 7.5 C 0 11.640625 3.582031 15 8 15 C 12.417969 15 16 11.640625 16 7.5 C 16 3.355469 12.417969 0 8 0 Z M 4.316406 12.164062 C 3.597656 12.164062 3.011719 11.621094 3.011719 10.949219 C 3.011719 10.277344 3.597656 9.726562 4.316406 9.726562 C 5.035156 9.726562 5.617188 10.277344 5.621094 10.949219 C 5.621094 11.621094 5.035156 12.164062 4.316406 12.164062 Z M 7.589844 12.175781 C 7.589844 11.023438 7.113281 9.945312 6.246094 9.136719 C 5.382812 8.324219 4.234375 7.875 3.015625 7.875 L 3.015625 6.117188 C 6.574219 6.117188 9.472656 8.835938 9.472656 12.175781 Z M 10.917969 12.175781 C 10.917969 8.085938 7.371094 4.757812 3.015625 4.757812 L 3.015625 3 C 8.410156 3 12.800781 7.117188 12.800781 12.175781 Z M 10.917969 12.175781 "/>
</g>
</svg>
